<svg xmlns="http://www.w3.org/2000/svg" version="1.0" width="344.000000pt" height="340.000000pt" viewBox="0 0 344.000000 340.000000" preserveAspectRatio="xMidYMid meet">
<metadata>
Created by potrace 1.16, written by Peter Selinger 2001-2019
</metadata>
<g transform="translate(0.000000,340.000000) scale(0.100000,-0.100000)" fill="#000000" stroke="none">
<path d="M0 1721 c0 -924 3 -1686 6 -1695 6 -15 165 -16 1703 -16 1307 0 1700 3 1709 12 9 9 12 399 12 1695 l0 1683 -1715 0 -1715 0 0 -1679z m1864 1435 c123 -60 206 -189 206 -318 0 -153 -108 -303 -249 -344 -75 -23 -200 -15 -264 16 -173 82 -248 300 -165 478 33 71 121 153 193 180 86 31 200 27 279 -12z m-580 -403 c4 -21 14 -57 23 -81 9 -23 14 -44 12 -46 -2 -2 -40 -22 -85 -45 -141 -72 -286 -188 -363 -291 -14 -19 -28 -37 -31 -40 -14 -13 -62 -94 -93 -157 -48 -94 -93 -122 -150 -91 -76 40 -59 131 56 303 125 187 294 340 481 435 123 62 141 63 150 13z m1002 -13 c264 -135 480 -367 592 -635 54 -132 92 -299 92 -412 0 -39 4 -74 9 -77 5 -3 19 7 32 22 67 78 119 91 168 41 23 -23 31 -40 31 -67 0 -33 -12 -48 -143 -179 -191 -191 -175 -190 -355 -12 -73 72 -139 144 -148 160 -19 37 -10 72 28 104 48 41 82 32 156 -38 l42 -41 0 39 c0 60 -28 208 -57 299 -56 178 -134 310 -252 427 -89 87 -167 143 -283 201 -46 22 -86 45 -89 51 -4 5 2 33 12 63 11 29 19 62 19 72 0 46 26 43 146 -18z m-812 -286 c9 -8 16 -20 16 -26 0 -5 26 -42 58 -81 32 -40 69 -90 82 -112 24 -38 24 -39 31 -15 17 60 9 114 -21 154 -35 46 -37 61 -11 76 21 11 139 14 165 4 25 -9 19 -41 -15 -89 -29 -41 -31 -47 -24 -104 4 -34 10 -61 13 -61 4 0 22 24 40 53 18 29 55 81 82 117 28 36 56 74 63 84 13 18 17 19 63 6 98 -27 160 -74 194 -148 20 -41 21 -59 18 -201 -3 -145 -5 -160 -30 -214 -21 -44 -35 -61 -60 -71 -119 -50 -771 -48 -864 2 -50 26 -84 149 -84 298 0 194 48 275 193 325 66 22 72 22 91 3z m-746 -747 c124 -126 142 -147 142 -176 0 -46 -46 -91 -95 -91 -29 0 -45 9 -85 46 l-50 47 0 -56 c0 -30 7 -92 16 -138 67 -358 263 -615 589 -775 129 -63 219 -89 361 -106 312 -36 657 91 881 325 90 94 123 140 182 252 56 106 65 115 115 115 56 -1 96 -37 96 -87 0 -26 -62 -152 -111 -225 -204 -305 -478 -483 -858 -558 -72 -14 -322 -14 -402 0 -484 86 -873 431 -1011 900 -22 75 -47 234 -48 303 0 26 -2 47 -5 47 -2 0 -25 -20 -51 -44 -53 -51 -69 -57 -114 -42 -43 14 -75 65 -65 104 7 29 255 287 290 303 48 21 76 2 223 -144z m537 -66 c70 -32 115 -104 115 -186 -1 -74 -76 -168 -145 -181 -139 -26 -246 55 -248 185 -1 149 143 243 278 182z m563 -18 c77 -62 101 -156 62 -242 -35 -75 -92 -111 -180 -111 -89 0 -161 54 -189 141 -19 61 7 152 57 196 47 42 82 54 150 49 52 -3 70 -9 100 -33z m497 18 c78 -35 122 -115 112 -202 -12 -101 -91 -169 -196 -169 -115 0 -191 78 -191 195 0 64 14 96 63 143 55 54 139 67 212 33z m-1228 -371 c49 -26 115 -26 169 1 39 20 47 21 88 9 69 -19 81 -38 66 -101 -12 -49 -9 -143 6 -211 10 -45 -18 -52 -226 -56 -221 -4 -255 4 -284 63 -27 54 -27 190 0 236 20 33 92 79 126 79 10 0 35 -9 55 -20z m533 0 c51 -26 112 -25 166 2 38 19 48 20 83 10 21 -7 49 -20 61 -30 22 -18 22 -21 10 -71 -12 -50 -10 -116 6 -203 5 -31 3 -38 -17 -49 -33 -19 -345 -25 -417 -9 -77 17 -87 37 -87 171 0 126 13 153 86 181 57 22 62 22 109 -2z m530 0 c50 -26 109 -25 167 1 41 18 51 19 90 9 47 -14 98 -63 109 -106 11 -42 -1 -177 -19 -210 -12 -24 -27 -34 -61 -43 -58 -14 -329 -14 -396 0 -47 10 -54 15 -71 53 -24 54 -26 183 -3 232 17 35 35 50 89 71 42 16 51 16 95 -7z"/>
</g>
</svg>